<svg xmlns="http://www.w3.org/2000/svg" width="800" height="800" viewBox="0 0 22 22"><path d="M12 18.09A6.09 6.09 0 1 1 18.09 12 6.1 6.1 0 0 1 12 18.09Zm0-11.18A5.09 5.09 0 1 0 17.09 12 5.1 5.1 0 0 0 12 6.91ZM10.8 2.568v1.6a1.2 1.2 0 1 0 2.4 0v-1.6a1.2 1.2 0 1 0-2.4 0ZM13.2 21.432v-1.6a1.2 1.2 0 0 0-2.4 0v1.6a1.2 1.2 0 1 0 2.4 0ZM21.432 10.8h-1.6a1.2 1.2 0 0 0 0 2.4h1.6a1.2 1.2 0 1 0 0-2.4ZM2.568 13.2h1.6a1.2 1.2 0 1 0 0-2.4h-1.6a1.2 1.2 0 1 0 0 2.4ZM18.316 4.977l-.992.992-.141.141a1.214 1.214 0 0 0-.346.843.808 .808 0 0 0 .346.844 1.2 1.2 0 0 0 .844.346 1.215 1.215 0 0 0 .843-.346l.992-.992.141-.141a1.215 1.215 0 0 0 .347-.844.808.808 0 0 0-.347-.843 1.2 1.2 0 0 0-.843-.347 1.222 1.222 0 0 0-.844.347ZM5.684 19.023l.992-.992.141-.141a1.214 1.214 0 0 0 .346-.843.808.808 0 0 0-.346-.844 1.2 1.2 0 0 0-.844-.346 1.215 1.215 0 0 0-.843.346l-.992.992-.141.141a1.215 1.215 0 0 0-.347.844.808.808 0 0 0 .347.843 1.2 1.2 0 0 0 .843.347 1.222 1.222 0 0 0 .844-.347ZM19.023 18.316l-.992-.992-.141-.141a1.214 1.214 0 0 0-.843-.346.808.808 0 0 0-.844.346 1.2 1.2 0 0 0-.346.844 1.215 1.215 0 0 0 .346.843l.992.992.141.141a1.215 1.215 0 0 0 .844.347.808.808 0 0 0 .843-.347 1.2 1.2 0 0 0 .347-.843 1.222 1.222 0 0 0-.347-.844ZM4.977 5.684l.992.992.141.141a1.214 1.214 0 0 0 .843.346.808.808 0 0 0 .844-.346 1.2 1.2 0 0 0 .346-.844 1.215 1.215 0 0 0-.346-.843l-.992-.992-.141-.141a1.215 1.215 0 0 0-.844-.347.808.808 0 0 0-.843.347 1.2 1.2 0 0 0-.347.843 1.222 1.222 0 0 0 .347.844Z" fill="currentColor" /></svg>
